# xmcd
#
# Track frame offsets:
#  150
#  19839
#  40994
#  60676
#  81436
#  99825
#  120863
#  139075
#  162894
#  175144
#  191554
#  210838
#  228094
#  250541
#  264326
#  281209
#  299246
#
# Disc length: 4270 seconds
#
# Revision: 0
# Processed by: cddbd v1.4PL0 Copyright (c) Steve Scherf et al.
# Submitted via: AltoMP3_Maker 3.0
#
DISCID=e710ac11
DTITLE=蔡琴 - 琴歌35首全纪录[CD1]
DYEAR=1900
DGENRE=
TTITLE0=继续
TTITLE1=塔
TTITLE2=顺应着
TTITLE3=新月
TTITLE4=落一滴泪
TTITLE5=心太急
TTITLE6=傻话
TTITLE7=卿卿如晤
TTITLE8=落花流水
TTITLE9=梦中人
TTITLE10=蝶衣
TTITLE11=三年
TTITLE12=最后一夜
TTITLE13=前生有约
TTITLE14=未识绮罗香
TTITLE15=一年又一年
TTITLE16=终有一天等到你
EXTD=
EXTT0=
EXTT1=
EXTT2=
EXTT3=
EXTT4=
EXTT5=
EXTT6=
EXTT7=
EXTT8=
EXTT9=
EXTT10=
EXTT11=
EXTT12=
EXTT13=
EXTT14=
EXTT15=
EXTT16=
PLAYORDER=
